<svg width="236" height="56" viewBox="0 0 236 56" fill="none" xmlns="http://www.w3.org/2000/svg">
<g clip-path="url(#clip0_3406_439)">
<path d="M111.42 49.0522L111.208 50.1454H114.078L113.81 51.5162H110.931L110.7 52.7019H114.087L113.792 54.1196H108.614L109.906 47.6345H114.964L114.678 49.0522L111.42 49.0522Z" fill="black"/>
<path d="M118.471 51.6272L119.828 54.1196H117.963L117.28 52.8044L116.071 54.1196H114.087L116.588 51.544L115.268 49.0985H117.105L117.77 50.3768L118.96 49.0985H120.889L118.471 51.6272Z" fill="black"/>
<path d="M121.678 53.9207C121.299 53.7483 120.978 53.4698 120.755 53.119C120.532 52.7575 120.418 52.3393 120.427 51.9147C120.418 51.3961 120.554 50.8852 120.819 50.4399C121.085 49.9945 121.471 49.6324 121.931 49.3946C122.424 49.1371 122.973 49.0067 123.528 49.0153C124.04 49.002 124.547 49.1249 124.996 49.3715C125.399 49.5991 125.716 49.9521 125.9 50.3768L124.405 51.0899C124.338 50.8889 124.207 50.7152 124.032 50.5949C123.857 50.4747 123.648 50.4144 123.436 50.423C123.27 50.4187 123.104 50.4514 122.952 50.5187C122.799 50.586 122.664 50.6863 122.555 50.8123C122.317 51.0902 122.193 51.4477 122.208 51.813C122.202 51.942 122.221 52.071 122.265 52.1926C122.308 52.3142 122.375 52.426 122.462 52.5215C122.558 52.6133 122.672 52.6842 122.797 52.7297C122.922 52.7752 123.054 52.7943 123.187 52.7859C123.403 52.7902 123.617 52.7356 123.805 52.6279C124.001 52.505 124.16 52.3323 124.267 52.1276L125.55 52.9062C125.31 53.3136 124.959 53.6446 124.539 53.8605C124.084 54.0937 123.578 54.2113 123.067 54.2029C122.589 54.2136 122.114 54.1172 121.678 53.9207Z" fill="black"/>
<path d="M131.328 52.0443H127.655C127.716 52.5883 128.095 52.8601 128.79 52.8599C129.009 52.8601 129.227 52.8255 129.436 52.7575C129.641 52.6921 129.832 52.5885 129.999 52.4521L130.728 53.5545C130.108 53.9981 129.359 54.2258 128.596 54.2029C128.115 54.213 127.638 54.1166 127.198 53.9207C126.817 53.7511 126.493 53.4741 126.266 53.1236C126.042 52.761 125.928 52.341 125.938 51.9148C125.931 51.3938 126.063 50.8803 126.321 50.4277C126.574 49.9887 126.945 49.6292 127.392 49.39C127.876 49.1339 128.418 49.0049 128.965 49.0153C129.416 49.0051 129.863 49.0985 130.271 49.2882C130.627 49.4559 130.926 49.7249 131.13 50.0615C131.334 50.4128 131.438 50.8137 131.43 51.2201C131.425 51.4977 131.391 51.774 131.328 52.0443ZM128.172 50.4924C127.974 50.6546 127.829 50.8724 127.756 51.1177H129.814C129.823 51.0014 129.806 50.8845 129.762 50.7762C129.719 50.6678 129.652 50.5707 129.565 50.4924C129.374 50.3345 129.13 50.2537 128.882 50.2658C128.626 50.2568 128.375 50.3369 128.172 50.4924Z" fill="black"/>
<path d="M133.026 47.246H134.78L133.414 54.1197H131.66L133.026 47.246Z" fill="black"/>
<path d="M135.915 47.246H137.669L136.303 54.1197H134.549L135.915 47.246Z" fill="black"/>
<path d="M142.994 52.0443H139.321C139.382 52.5883 139.761 52.8601 140.456 52.8599C140.675 52.8601 140.893 52.8255 141.102 52.7575C141.307 52.6921 141.498 52.5885 141.665 52.4521L142.394 53.5545C141.774 53.9981 141.025 54.2258 140.262 54.2029C139.781 54.213 139.304 54.1166 138.864 53.9207C138.483 53.7511 138.159 53.4741 137.932 53.1236C137.708 52.761 137.594 52.341 137.604 51.9148C137.597 51.3938 137.729 50.8803 137.987 50.4277C138.24 49.9887 138.611 49.6292 139.058 49.39C139.542 49.1339 140.084 49.0049 140.631 49.0153C141.082 49.0051 141.529 49.0985 141.937 49.2882C142.293 49.4559 142.592 49.7249 142.796 50.0615C143 50.4128 143.104 50.8137 143.096 51.2201C143.091 51.4977 143.057 51.774 142.994 52.0443ZM139.838 50.4924C139.64 50.6546 139.495 50.8724 139.422 51.1177H141.48C141.489 51.0014 141.472 50.8845 141.428 50.7762C141.385 50.6678 141.318 50.5707 141.231 50.4924C141.04 50.3345 140.796 50.2537 140.548 50.2658C140.292 50.2568 140.041 50.3369 139.838 50.4924Z" fill="black"/>
<path d="M148.766 49.4548C148.936 49.6168 149.068 49.814 149.153 50.0326C149.238 50.2511 149.275 50.4857 149.26 50.7198C149.259 50.9284 149.238 51.1363 149.195 51.3405L148.641 54.1197H146.888L147.405 51.507C147.43 51.3978 147.442 51.286 147.442 51.1739C147.442 50.7291 147.211 50.5066 146.749 50.5064C146.611 50.5012 146.473 50.5235 146.343 50.5721C146.213 50.6206 146.094 50.6944 145.993 50.7892C145.772 51.0236 145.628 51.3189 145.577 51.6366L145.079 54.1197H143.325L144.322 49.0986H145.983L145.882 49.6174C146.091 49.4172 146.339 49.2626 146.611 49.1634C146.88 49.0647 147.164 49.0146 147.451 49.0153C147.929 48.9915 148.398 49.1484 148.766 49.4548Z" fill="black"/>
<path d="M151.23 53.9207C150.852 53.7483 150.531 53.4698 150.308 53.119C150.085 52.7575 149.971 52.3393 149.98 51.9147C149.97 51.3961 150.106 50.8852 150.372 50.4399C150.638 49.9945 151.023 49.6324 151.484 49.3946C151.977 49.1371 152.525 49.0067 153.081 49.0153C153.593 49.002 154.1 49.1249 154.549 49.3715C154.952 49.5991 155.269 49.9521 155.453 50.3768L153.958 51.0899C153.89 50.8889 153.759 50.7152 153.585 50.5949C153.41 50.4747 153.201 50.4144 152.989 50.423C152.822 50.4187 152.657 50.4514 152.504 50.5187C152.352 50.586 152.216 50.6863 152.107 50.8123C151.87 51.0902 151.746 51.4477 151.761 51.813C151.755 51.942 151.774 52.071 151.817 52.1926C151.861 52.3142 151.928 52.426 152.015 52.5215C152.111 52.6133 152.225 52.6842 152.35 52.7297C152.474 52.7752 152.607 52.7943 152.74 52.7859C152.956 52.7902 153.17 52.7356 153.358 52.6279C153.553 52.505 153.713 52.3323 153.819 52.1276L155.102 52.9062C154.863 53.3136 154.512 53.6446 154.092 53.8605C153.637 54.0937 153.131 54.2113 152.62 54.2029C152.141 54.2136 151.667 54.1172 151.23 53.9207Z" fill="black"/>
<path d="M160.88 52.0443H157.207C157.268 52.5883 157.646 52.8601 158.342 52.8599C158.561 52.8601 158.779 52.8255 158.988 52.7575C159.193 52.6923 159.384 52.5887 159.551 52.4521L160.279 53.5546C159.659 53.9982 158.91 54.226 158.147 54.2029C157.666 54.2129 157.189 54.1165 156.75 53.9207C156.368 53.7511 156.044 53.4741 155.817 53.1236C155.593 52.761 155.48 52.341 155.49 51.9148C155.482 51.3938 155.615 50.8803 155.873 50.4277C156.126 49.9886 156.497 49.6291 156.944 49.39C157.428 49.1338 157.97 49.0048 158.517 49.0153C158.968 49.0051 159.414 49.0985 159.823 49.2882C160.179 49.4559 160.477 49.7249 160.681 50.0615C160.886 50.4127 160.99 50.8137 160.981 51.2202C160.977 51.4977 160.943 51.7739 160.88 52.0443ZM157.723 50.4924C157.525 50.6544 157.381 50.8723 157.309 51.1177H159.367C159.375 51.0013 159.357 50.8845 159.314 50.7761C159.271 50.6678 159.203 50.5708 159.117 50.4924C158.925 50.3345 158.682 50.2537 158.435 50.2658C158.178 50.2569 157.927 50.337 157.723 50.4924Z" fill="black"/>
<path d="M161.364 53.9299C161.272 53.8407 161.199 53.7332 161.15 53.6143C161.102 53.4953 161.079 53.3676 161.083 53.2393C161.077 53.0887 161.103 52.9387 161.16 52.7991C161.216 52.6594 161.301 52.5333 161.41 52.429C161.516 52.3272 161.641 52.2474 161.778 52.1941C161.916 52.1408 162.062 52.1151 162.209 52.1183C162.34 52.1124 162.47 52.1328 162.593 52.1782C162.716 52.2236 162.828 52.2931 162.924 52.3827C163.015 52.4739 163.087 52.5832 163.134 52.7036C163.181 52.824 163.202 52.9529 163.196 53.082C163.201 53.2319 163.175 53.3811 163.118 53.52C163.062 53.6589 162.977 53.7844 162.869 53.8883C162.764 53.9905 162.641 54.0709 162.506 54.1249C162.37 54.1789 162.225 54.2054 162.08 54.2029C161.948 54.2074 161.817 54.1856 161.694 54.1387C161.571 54.0919 161.459 54.0209 161.364 53.9299Z" fill="black"/>
<path d="M172.537 54.2631C172.714 54.1862 172.877 54.0781 173.017 53.9439L173.69 55.0278C173.461 55.2488 173.185 55.4165 172.883 55.5189C172.549 55.6328 172.198 55.6891 171.845 55.6855C171.305 55.7078 170.77 55.577 170.301 55.3082C169.832 55.0393 169.449 54.6433 169.196 54.166C168.532 54.0477 167.929 53.7041 167.488 53.1931C167.072 52.6882 166.853 52.05 166.87 51.396C166.86 50.6952 167.036 50.0043 167.382 49.3947C167.719 48.8062 168.215 48.3247 168.813 48.0054C169.456 47.6642 170.175 47.492 170.903 47.5051C171.491 47.4911 172.074 47.6147 172.606 47.866C173.068 48.088 173.456 48.4386 173.723 48.8759C173.989 49.3242 174.124 49.8374 174.115 50.3584C174.121 50.9341 174.003 51.5044 173.769 52.0305C173.546 52.5293 173.213 52.9713 172.796 53.3233C172.365 53.6813 171.86 53.9405 171.319 54.0827C171.4 54.1799 171.503 54.2574 171.619 54.3094C171.74 54.3583 171.87 54.3819 172.001 54.3788C172.186 54.3776 172.368 54.3382 172.537 54.2631ZM169.676 49.3299C169.369 49.5334 169.123 49.8171 168.965 50.1501C168.796 50.5043 168.711 50.8925 168.716 51.2849C168.707 51.4784 168.738 51.6717 168.807 51.8527C168.876 52.0336 168.982 52.1984 169.117 52.3365C169.269 52.4734 169.446 52.5787 169.638 52.6462C169.831 52.7137 170.035 52.7421 170.239 52.7297C170.618 52.7375 170.991 52.6311 171.309 52.4244C171.617 52.2209 171.862 51.9372 172.02 51.6042C172.189 51.25 172.274 50.8618 172.269 50.4694C172.278 50.2759 172.247 50.0826 172.178 49.9016C172.109 49.7207 172.003 49.556 171.868 49.4178C171.716 49.2809 171.539 49.1756 171.347 49.1081C171.154 49.0406 170.95 49.0122 170.746 49.0246C170.367 49.0168 169.994 49.1232 169.676 49.3299Z" fill="black"/>
<path d="M180.576 49.0985L179.579 54.1196H177.918L178.019 53.6008C177.811 53.8 177.565 53.9545 177.295 54.0548C177.03 54.1528 176.75 54.203 176.468 54.2029C175.992 54.2281 175.525 54.0688 175.163 53.7581C174.996 53.5937 174.866 53.3953 174.782 53.1763C174.699 52.9574 174.663 52.723 174.678 52.4891C174.678 52.2806 174.7 52.0726 174.743 51.8685L175.296 49.0985H177.05L176.533 51.7019C176.509 51.8145 176.497 51.9292 176.496 52.0443C176.484 52.1348 176.494 52.2269 176.524 52.3133C176.553 52.3996 176.603 52.4777 176.668 52.5415C176.734 52.6054 176.813 52.6531 176.9 52.6809C176.987 52.7087 177.079 52.7159 177.17 52.7019C177.307 52.7066 177.444 52.6841 177.572 52.6357C177.7 52.5872 177.818 52.5138 177.918 52.4197C178.136 52.1884 178.278 51.8956 178.324 51.581L178.822 49.0985H180.576Z" fill="black"/>
<path d="M186.99 49.0986L185.994 54.1197H184.332L184.434 53.6471C184.042 54.0146 183.522 54.2142 182.984 54.203C182.62 54.2041 182.262 54.11 181.946 53.93C181.618 53.7427 181.348 53.4684 181.166 53.1375C180.962 52.763 180.86 52.3413 180.871 51.9148C180.864 51.3991 180.99 50.8903 181.236 50.4369C181.467 50.0082 181.808 49.6485 182.223 49.3947C182.633 49.1434 183.104 49.012 183.584 49.0153C183.877 48.9854 184.173 49.0329 184.442 49.1532C184.711 49.2735 184.944 49.4623 185.117 49.7007L185.237 49.0986L186.99 49.0986ZM184.452 52.3966C184.682 52.1117 184.801 51.7526 184.785 51.3867C184.792 51.2583 184.773 51.1299 184.729 51.009C184.685 50.8881 184.618 50.7772 184.531 50.6828C184.439 50.5939 184.329 50.525 184.209 50.4803C184.089 50.4356 183.962 50.4161 183.834 50.4231C183.671 50.4186 183.509 50.4513 183.36 50.5187C183.211 50.5862 183.08 50.6866 182.975 50.8124C182.744 51.1003 182.626 51.4627 182.643 51.8315C182.632 51.9593 182.649 52.0881 182.692 52.2088C182.736 52.3294 182.806 52.4391 182.896 52.53C182.987 52.621 183.096 52.691 183.217 52.7352C183.337 52.7794 183.466 52.7967 183.594 52.7859C183.757 52.7903 183.919 52.7576 184.068 52.6901C184.216 52.6227 184.348 52.5223 184.452 52.3966Z" fill="black"/>
<path d="M188.485 47.246H190.239L188.873 54.1197H187.119L188.485 47.246Z" fill="black"/>
<path d="M191.005 49.0985H192.749L191.752 54.1196H190.008L191.005 49.0985ZM191.393 48.2922C191.304 48.2154 191.233 48.12 191.185 48.0128C191.137 47.9055 191.113 47.789 191.115 47.6716C191.112 47.5366 191.138 47.4026 191.191 47.2786C191.244 47.1547 191.324 47.0438 191.425 46.9538C191.651 46.7582 191.943 46.6569 192.241 46.6709C192.508 46.6575 192.771 46.7416 192.98 46.9076C193.069 46.9811 193.14 47.0739 193.188 47.179C193.236 47.2841 193.26 47.3988 193.257 47.5143C193.261 47.6531 193.235 47.7913 193.181 47.9192C193.127 48.0471 193.046 48.1618 192.943 48.2552C192.716 48.4532 192.422 48.5562 192.121 48.5427C191.855 48.5553 191.595 48.4657 191.393 48.2922Z" fill="black"/>
<path d="M195.212 52.2486C195.201 52.3351 195.194 52.3907 195.194 52.4151C195.194 52.6993 195.348 52.8415 195.656 52.8414C195.841 52.8364 196.021 52.7853 196.182 52.6927L196.404 53.9069C196.003 54.1176 195.554 54.2197 195.102 54.203C194.658 54.2268 194.22 54.0885 193.87 53.8137C193.717 53.6794 193.596 53.5121 193.517 53.3243C193.438 53.1365 193.402 52.9332 193.413 52.7298C193.411 52.5712 193.426 52.413 193.459 52.2579L193.792 50.5989H193.053L193.321 49.2837H194.05L194.308 47.9777H196.062L195.804 49.2837H196.939L196.68 50.5989H195.545L195.212 52.2486Z" fill="black"/>
<path d="M203.188 49.0985L199.986 54.3417C199.771 54.7023 199.516 55.0366 199.224 55.3377C199.005 55.5595 198.743 55.7331 198.453 55.8473C198.148 55.9548 197.826 56.0065 197.503 55.9999C197.235 55.9997 196.969 55.9592 196.714 55.8797C196.487 55.8176 196.275 55.7106 196.091 55.5651L196.875 54.3232C197.089 54.512 197.365 54.6144 197.65 54.6107C197.793 54.6152 197.934 54.5782 198.056 54.5043C198.189 54.411 198.302 54.2929 198.389 54.1566L197.254 49.0986H198.998L199.625 52.1831L201.472 49.0986L203.188 49.0985Z" fill="black"/>
<path d="M202.509 53.9299C202.417 53.8407 202.344 53.7332 202.296 53.6143C202.248 53.4953 202.225 53.3676 202.228 53.2393C202.223 53.0887 202.249 52.9387 202.305 52.7991C202.362 52.6594 202.447 52.5333 202.556 52.429C202.662 52.3272 202.787 52.2474 202.924 52.1941C203.061 52.1408 203.207 52.1151 203.354 52.1183C203.485 52.1124 203.616 52.1328 203.739 52.1782C203.861 52.2236 203.974 52.2931 204.069 52.3827C204.161 52.4739 204.232 52.5832 204.279 52.7036C204.326 52.824 204.348 52.9529 204.342 53.082C204.347 53.2319 204.32 53.3811 204.264 53.52C204.207 53.6589 204.122 53.7844 204.014 53.8883C203.91 53.9905 203.787 54.0709 203.651 54.1249C203.516 54.1789 203.371 54.2054 203.225 54.2029C203.094 54.2074 202.963 54.1856 202.84 54.1387C202.717 54.0919 202.605 54.0209 202.509 53.9299Z" fill="black"/>
<path d="M210.11 49.0892H208.125L208.421 47.6345H214.207L213.912 49.0892H211.937L210.931 54.1196H209.103L210.11 49.0892Z" fill="black"/>
<path d="M217.769 49.0153L217.465 50.5989C217.333 50.5819 217.201 50.5726 217.068 50.5711C216.73 50.5541 216.396 50.654 216.122 50.854C215.861 51.0853 215.692 51.4028 215.647 51.7483L215.167 54.1197H213.413L214.41 49.0986H216.071L215.961 49.6545C216.203 49.4303 216.488 49.258 216.799 49.1481C217.11 49.0382 217.44 48.993 217.769 49.0153Z" fill="black"/>
<path d="M223.76 49.0985L222.764 54.1196H221.102L221.204 53.6008C220.996 53.8 220.749 53.9545 220.479 54.0548C220.215 54.1528 219.935 54.203 219.653 54.2029C219.177 54.2281 218.709 54.0688 218.347 53.7581C218.18 53.5937 218.051 53.3953 217.967 53.1763C217.883 52.9574 217.848 52.723 217.863 52.4891C217.863 52.2806 217.885 52.0726 217.927 51.8685L218.481 49.0985H220.234L219.718 51.7019C219.694 51.8145 219.681 51.9292 219.681 52.0443C219.669 52.1348 219.678 52.2269 219.708 52.3133C219.738 52.3996 219.788 52.4777 219.853 52.5415C219.918 52.6054 219.998 52.6531 220.085 52.6809C220.172 52.7087 220.264 52.7159 220.354 52.7019C220.491 52.7066 220.628 52.6841 220.757 52.6357C220.885 52.5872 221.002 52.5138 221.102 52.4197C221.321 52.1884 221.462 51.8956 221.509 51.581L222.006 49.0985H223.76Z" fill="black"/>
<path d="M224.604 54.0641C224.277 53.9988 223.964 53.8798 223.677 53.7118L224.313 52.4798C224.566 52.6321 224.84 52.7461 225.125 52.8182C225.426 52.8997 225.737 52.9417 226.048 52.9431C226.584 52.9431 226.852 52.8226 226.852 52.5816C226.852 52.4831 226.789 52.4106 226.662 52.3641C226.465 52.3013 226.263 52.2564 226.058 52.23C225.75 52.1769 225.446 52.1041 225.148 52.0119C224.911 51.9344 224.697 51.799 224.525 51.618C224.432 51.5122 224.36 51.3891 224.314 51.2556C224.269 51.1221 224.249 50.9809 224.258 50.84C224.25 50.5694 224.315 50.3017 224.446 50.0646C224.576 49.8275 224.768 49.6297 225.001 49.4917C225.583 49.1511 226.252 48.9857 226.926 49.0152C227.273 49.014 227.619 49.0497 227.959 49.1216C228.26 49.1816 228.551 49.2795 228.826 49.4131L228.208 50.6457C227.758 50.384 227.243 50.2524 226.722 50.2657C226.515 50.2535 226.308 50.2899 226.118 50.3721C226.062 50.394 226.014 50.4314 225.978 50.4799C225.943 50.5284 225.923 50.5859 225.919 50.6457C225.919 50.7442 225.983 50.8169 226.108 50.8632C226.312 50.929 226.52 50.98 226.731 51.0158C227.033 51.0644 227.331 51.1357 227.622 51.2293C227.858 51.3087 228.07 51.4454 228.24 51.6272C228.425 51.8361 228.519 52.1092 228.504 52.3873C228.512 52.6578 228.447 52.9254 228.315 53.1618C228.183 53.3983 227.99 53.5947 227.756 53.7303C227.177 54.0663 226.514 54.2303 225.846 54.2029C225.428 54.2043 225.011 54.1577 224.604 54.0641Z" fill="black"/>
<path d="M231.263 52.2486C231.251 52.3351 231.245 52.3907 231.245 52.4151C231.245 52.6993 231.399 52.8415 231.706 52.8414C231.891 52.8364 232.072 52.7853 232.233 52.6927L232.454 53.9069C232.054 54.1176 231.605 54.2197 231.153 54.203C230.708 54.2268 230.271 54.0885 229.921 53.8137C229.767 53.6794 229.647 53.5121 229.567 53.3243C229.488 53.1365 229.453 52.9332 229.464 52.7298C229.462 52.5712 229.477 52.413 229.51 52.2579L229.842 50.5989H229.104L229.372 49.2837H230.1L230.359 47.9777H232.113L231.855 49.2837H232.99L232.731 50.5989H231.596L231.263 52.2486Z" fill="black"/>
<path d="M233.307 53.9299C233.215 53.8407 233.142 53.7332 233.094 53.6143C233.045 53.4954 233.022 53.3676 233.026 53.2393C233.02 53.0887 233.047 52.9387 233.103 52.7991C233.159 52.6594 233.245 52.5333 233.353 52.429C233.46 52.3272 233.585 52.2474 233.722 52.1941C233.859 52.1408 234.005 52.1151 234.152 52.1183C234.283 52.1124 234.414 52.1328 234.536 52.1782C234.659 52.2236 234.772 52.2931 234.867 52.3827C234.959 52.4739 235.03 52.5832 235.077 52.7036C235.124 52.824 235.146 52.9529 235.14 53.082C235.145 53.2319 235.118 53.3811 235.062 53.52C235.005 53.6589 234.92 53.7844 234.812 53.8883C234.708 53.9905 234.585 54.0709 234.449 54.1249C234.314 54.1789 234.169 54.2054 234.023 54.2029C233.892 54.2074 233.761 54.1856 233.638 54.1387C233.515 54.0918 233.402 54.0209 233.307 53.9299Z" fill="black"/>
<path d="M50.6727 2.03892e-05L43.5227 38.0009H32.383L35.5953 20.6834L25.3882 34.5807H19.9997L14.4037 20.9005L11.1397 38.0009H0L7.25376 0H17.2018L25.0772 20.1947L40.2584 0L50.6727 2.03892e-05Z" fill="#C2211A"/>
<path d="M89.2171 37.8415C87.1097 37.3745 85.0877 36.5827 83.2236 35.4944L87.3557 27.5643C90.5988 29.4908 94.2987 30.5136 98.0709 30.5266C99.1386 30.578 100.205 30.4073 101.204 30.0253C101.93 29.6913 102.293 29.2356 102.293 28.6581C102.293 28.1111 101.922 27.6705 101.181 27.3363C100.04 26.8753 98.8632 26.5096 97.6622 26.2426C95.8729 25.8012 94.1137 25.2455 92.3954 24.5791C90.9916 24.0092 89.74 23.1197 88.7403 21.9813C87.6534 20.6921 87.0939 19.0398 87.1739 17.3554C87.1293 15.0997 87.8053 12.8886 89.1034 11.0434C90.5153 9.13947 92.4466 7.68355 94.6656 6.85043C97.4034 5.80652 100.318 5.30354 103.247 5.36937C105.469 5.35439 107.685 5.59132 109.853 6.07561C111.71 6.47501 113.494 7.15912 115.142 8.1037L111.283 15.9426C110.014 15.1407 108.628 14.5412 107.174 14.1653C105.67 13.7697 104.121 13.5706 102.566 13.5728C101.381 13.5134 100.2 13.7319 99.1149 14.2108C98.2978 14.6367 97.8892 15.138 97.8891 15.7148C97.8891 16.2923 98.26 16.7481 99.0016 17.0819C100.185 17.5531 101.408 17.9191 102.656 18.1758C104.422 18.5739 106.159 19.0917 107.855 19.7254C109.26 20.2709 110.514 21.1461 111.51 22.2775C112.58 23.5481 113.132 25.1756 113.054 26.835C113.095 29.0727 112.41 31.2635 111.101 33.0789C109.672 34.969 107.735 36.415 105.517 37.249C102.794 38.2902 99.8953 38.7932 96.9809 38.73C94.3667 38.7463 91.76 38.448 89.2171 37.8415Z" fill="#C2211A"/>
<path d="M138.054 32.4407H125.931L122.752 38.0009H111.447L131.697 6.09839H142.231L149.768 38.0009H139.098L138.054 32.4407ZM136.555 24.6929L135.011 16.535L130.335 24.6929H136.555Z" fill="#C2211A"/>
<path d="M158.388 37.8415C156.281 37.3745 154.259 36.5827 152.395 35.4944L156.527 27.5643C159.77 29.4908 163.47 30.5136 167.242 30.5266C168.309 30.578 169.376 30.4073 170.375 30.0253C171.101 29.6913 171.464 29.2356 171.464 28.6581C171.464 28.1111 171.093 27.6705 170.352 27.3363C169.211 26.8753 168.034 26.5095 166.833 26.2426C165.044 25.8012 163.285 25.2455 161.566 24.5791C160.162 24.0092 158.911 23.1197 157.911 21.9813C156.824 20.6921 156.265 19.0398 156.345 17.3554C156.3 15.0997 156.976 12.8886 158.274 11.0434C159.686 9.13947 161.618 7.68355 163.837 6.85043C166.574 5.80652 169.488 5.30355 172.418 5.36936C174.639 5.35439 176.856 5.59131 179.024 6.0756C180.881 6.47501 182.665 7.15912 184.313 8.1037L180.454 15.9426C179.185 15.1407 177.799 14.5412 176.345 14.1653C174.841 13.7697 173.292 13.5706 171.737 13.5728C170.552 13.5134 169.37 13.7319 168.286 14.2108C167.469 14.6367 167.06 15.138 167.06 15.7148C167.06 16.2923 167.431 16.7481 168.172 17.0819C169.356 17.5531 170.579 17.9191 171.827 18.1758C173.593 18.5739 175.33 19.0917 177.026 19.7254C178.431 20.2709 179.685 21.1461 180.681 22.2775C181.751 23.5481 182.302 25.1756 182.225 26.835C182.266 29.0727 181.581 31.2634 180.272 33.0789C178.843 34.969 176.906 36.415 174.688 37.249C171.965 38.2902 169.066 38.7932 166.152 38.73C163.538 38.7463 160.931 38.448 158.388 37.8415Z" fill="#C2211A"/>
<path d="M221.533 6.09843L215.176 38.0009H204.461L206.822 26.2426H196.924L194.563 38.0009H183.848L189.207 11.1027C189.486 9.69385 190.244 8.42514 191.353 7.51266C192.462 6.60018 193.852 6.10037 195.288 6.09839H200.92L198.649 17.4009H208.547L209.855 10.8899C210.124 9.54043 210.852 8.32568 211.915 7.45217C212.978 6.57866 214.311 6.10029 215.687 6.0984L221.533 6.09843Z" fill="#C2211A"/>
<path d="M230.16 6.09839H235.99L229.633 38.0009H218.918L224.316 10.9072C224.584 9.55342 225.313 8.33426 226.378 7.45742C227.444 6.58058 228.78 6.1003 230.16 6.09839Z" fill="#C2211A"/>
<path d="M80.1896 6.09779C78.7314 6.09988 77.3205 6.61517 76.2042 7.55334C75.0879 8.49151 74.3374 9.79268 74.0844 11.2287L74.0603 11.3638H74.0562L71.6539 23.4619C71.4007 25.2909 70.6988 27.0288 69.6108 28.5207C69.1476 29.0284 68.5774 29.4267 67.9413 29.6868C67.3052 29.9469 66.6193 30.0623 65.9331 30.0246C64.777 30.1068 63.6352 29.7302 62.7548 28.9764C62.3643 28.5477 62.066 28.0433 61.8786 27.4945C61.6911 26.9457 61.6185 26.3642 61.6651 25.7861C61.675 25.004 61.7663 24.2251 61.9376 23.4619L65.3882 6.09779H59.7523C58.2706 6.1 56.8385 6.63201 55.7147 7.59774C54.591 8.56347 53.8496 9.89924 53.6246 11.3638L51.1769 23.6442C50.9515 24.7546 50.8299 25.8837 50.8137 27.0167C50.7625 29.1989 51.3384 31.3501 52.473 33.2149C53.6209 35.019 55.2808 36.4399 57.2403 37.2959C59.5659 38.3032 62.0828 38.7924 64.6164 38.7294C69.458 38.7294 73.3325 37.4989 76.2397 35.0379C79.1455 32.5769 81.0828 28.9308 82.0514 24.0999L85.6383 6.09778L80.1896 6.09779Z" fill="#C2211A"/>
</g>
<defs>
<clipPath id="clip0_3406_439">
<rect width="235.99" height="56" fill="white"/>
</clipPath>
</defs>
</svg>
