<svg width="203" height="48" viewBox="0 0 203 48" fill="none" xmlns="http://www.w3.org/2000/svg">
<g clip-path="url(#clip0_3504_439)">
<path d="M95.503 42.0448L95.321 42.9818H97.7814L97.552 44.1567H95.0836L94.8858 45.173H97.7893L97.5362 46.3882H93.0981L94.2055 40.8296H98.5407L98.2955 42.0448L95.503 42.0448Z" fill="#C2211A"/>
<path d="M101.547 44.2519L102.71 46.3883H101.112L100.526 45.2609L99.4898 46.3883H97.7891L99.9329 44.1806L98.8016 42.0845H100.376L100.946 43.1801L101.966 42.0845H103.619L101.547 44.2519Z" fill="#C2211A"/>
<path d="M104.296 46.2177C103.971 46.0699 103.697 45.8312 103.505 45.5305C103.314 45.2207 103.216 44.8623 103.224 44.4983C103.216 44.0538 103.332 43.6159 103.56 43.2341C103.788 42.8524 104.118 42.542 104.513 42.3382C104.935 42.1175 105.406 42.0057 105.882 42.013C106.321 42.0017 106.755 42.107 107.14 42.3184C107.485 42.5135 107.758 42.816 107.915 43.1801L106.634 43.7913C106.576 43.619 106.463 43.4701 106.314 43.367C106.164 43.264 105.985 43.2123 105.803 43.2197C105.66 43.216 105.518 43.244 105.388 43.3017C105.257 43.3594 105.141 43.4454 105.048 43.5534C104.844 43.7916 104.738 44.098 104.751 44.4111C104.745 44.5217 104.762 44.6323 104.799 44.7365C104.836 44.8407 104.894 44.9365 104.968 45.0184C105.051 45.0971 105.148 45.1579 105.255 45.1969C105.362 45.2359 105.476 45.2523 105.589 45.245C105.775 45.2487 105.958 45.2019 106.119 45.1096C106.287 45.0042 106.423 44.8562 106.515 44.6808L107.615 45.3481C107.409 45.6974 107.109 45.981 106.748 46.1661C106.358 46.366 105.925 46.4668 105.487 46.4596C105.077 46.4688 104.67 46.3862 104.296 46.2177Z" fill="#C2211A"/>
<path d="M112.567 44.6094H109.418C109.471 45.0756 109.795 45.3087 110.391 45.3085C110.579 45.3087 110.766 45.279 110.945 45.2207C111.121 45.1647 111.285 45.0759 111.428 44.959L112.053 45.9039C111.521 46.2841 110.879 46.4793 110.225 46.4596C109.813 46.4683 109.404 46.3857 109.027 46.2178C108.7 46.0723 108.422 45.835 108.228 45.5345C108.036 45.2237 107.938 44.8637 107.947 44.4984C107.94 44.0518 108.054 43.6117 108.275 43.2237C108.492 42.8474 108.81 42.5393 109.193 42.3343C109.608 42.1147 110.072 42.0042 110.542 42.0131C110.928 42.0044 111.311 42.0844 111.661 42.2471C111.966 42.3908 112.222 42.6213 112.397 42.9099C112.572 43.211 112.661 43.5546 112.654 43.903C112.65 44.1409 112.621 44.3777 112.567 44.6094ZM109.861 43.2792C109.692 43.4182 109.568 43.6049 109.505 43.8152H111.269C111.277 43.7155 111.262 43.6153 111.225 43.5224C111.188 43.4295 111.13 43.3463 111.056 43.2792C110.892 43.1439 110.683 43.0746 110.47 43.0849C110.251 43.0773 110.036 43.1459 109.861 43.2792Z" fill="#C2211A"/>
<path d="M114.022 40.4966H115.526L114.355 46.3883H112.852L114.022 40.4966Z" fill="#C2211A"/>
<path d="M116.499 40.4966H118.002L116.831 46.3883H115.328L116.499 40.4966Z" fill="#C2211A"/>
<path d="M122.567 44.6094H119.418C119.471 45.0756 119.795 45.3087 120.391 45.3085C120.579 45.3087 120.766 45.279 120.945 45.2207C121.121 45.1647 121.285 45.0759 121.428 44.959L122.053 45.9039C121.521 46.2841 120.879 46.4793 120.225 46.4596C119.813 46.4683 119.404 46.3857 119.027 46.2178C118.7 46.0723 118.422 45.8349 118.228 45.5345C118.036 45.2237 117.938 44.8637 117.947 44.4984C117.94 44.0518 118.054 43.6117 118.275 43.2237C118.492 42.8474 118.81 42.5393 119.193 42.3343C119.608 42.1147 120.072 42.0042 120.542 42.0131C120.928 42.0044 121.311 42.0844 121.661 42.2471C121.966 42.3908 122.222 42.6213 122.397 42.9099C122.572 43.211 122.661 43.5546 122.654 43.903C122.65 44.1409 122.621 44.3777 122.567 44.6094ZM119.861 43.2792C119.692 43.4182 119.568 43.6049 119.505 43.8152H121.269C121.277 43.7155 121.262 43.6153 121.225 43.5224C121.188 43.4295 121.13 43.3463 121.056 43.2792C120.892 43.1439 120.683 43.0746 120.47 43.0849C120.251 43.0773 120.036 43.1459 119.861 43.2792Z" fill="#C2211A"/>
<path d="M127.514 42.3897C127.66 42.5286 127.773 42.6976 127.846 42.885C127.919 43.0723 127.95 43.2734 127.937 43.4741C127.937 43.6528 127.918 43.831 127.882 44.006L127.407 46.3882H125.904L126.347 44.1488C126.369 44.0551 126.38 43.9593 126.379 43.8632C126.379 43.482 126.181 43.2912 125.786 43.2911C125.667 43.2866 125.548 43.3058 125.437 43.3474C125.326 43.389 125.224 43.4523 125.137 43.5335C124.948 43.7344 124.824 43.9875 124.781 44.2598L124.354 46.3882H122.851L123.705 42.0844H125.129L125.042 42.5291C125.221 42.3575 125.434 42.2249 125.667 42.1399C125.898 42.0554 126.141 42.0124 126.387 42.013C126.797 41.9926 127.199 42.1271 127.514 42.3897Z" fill="#C2211A"/>
<path d="M129.626 46.2177C129.301 46.0699 129.027 45.8312 128.835 45.5305C128.644 45.2207 128.546 44.8623 128.554 44.4983C128.546 44.0538 128.662 43.6159 128.89 43.2341C129.118 42.8524 129.448 42.542 129.843 42.3382C130.265 42.1175 130.736 42.0057 131.212 42.013C131.651 42.0017 132.085 42.107 132.47 42.3184C132.815 42.5135 133.088 42.816 133.245 43.1801L131.964 43.7913C131.906 43.619 131.794 43.4701 131.644 43.367C131.494 43.264 131.315 43.2123 131.133 43.2197C130.99 43.216 130.849 43.244 130.718 43.3017C130.587 43.3594 130.471 43.4454 130.378 43.5534C130.174 43.7916 130.068 44.098 130.081 44.4111C130.075 44.5217 130.092 44.6323 130.129 44.7365C130.166 44.8407 130.224 44.9365 130.298 45.0184C130.381 45.0971 130.478 45.1579 130.585 45.1969C130.692 45.2359 130.806 45.2523 130.92 45.245C131.105 45.2487 131.288 45.2019 131.449 45.1096C131.617 45.0042 131.754 44.8562 131.845 44.6808L132.945 45.3481C132.739 45.6974 132.439 45.981 132.078 46.1661C131.688 46.366 131.255 46.4668 130.817 46.4596C130.407 46.4688 130 46.3861 129.626 46.2177Z" fill="#C2211A"/>
<path d="M137.897 44.6094H134.748C134.801 45.0757 135.125 45.3087 135.722 45.3085C135.91 45.3087 136.096 45.279 136.275 45.2207C136.451 45.1648 136.615 45.076 136.758 44.959L137.382 45.9039C136.85 46.2842 136.208 46.4794 135.555 46.4597C135.143 46.4682 134.734 46.3856 134.357 46.2178C134.03 46.0723 133.752 45.835 133.558 45.5345C133.366 45.2237 133.268 44.8637 133.277 44.4984C133.271 44.0518 133.384 43.6117 133.605 43.2237C133.822 42.8473 134.14 42.5392 134.523 42.3343C134.938 42.1147 135.402 42.0041 135.872 42.0131C136.258 42.0044 136.641 42.0844 136.991 42.2471C137.296 42.3907 137.552 42.6213 137.727 42.9099C137.902 43.2109 137.991 43.5546 137.984 43.903C137.98 44.1409 137.951 44.3777 137.897 44.6094ZM135.191 43.2792C135.022 43.4181 134.898 43.6049 134.836 43.8152H136.6C136.607 43.7154 136.592 43.6153 136.555 43.5224C136.518 43.4295 136.46 43.3464 136.386 43.2792C136.222 43.1439 136.013 43.0746 135.801 43.0849C135.581 43.0773 135.366 43.146 135.191 43.2792Z" fill="#C2211A"/>
<path d="M138.312 46.2255C138.233 46.1491 138.17 46.0569 138.129 45.955C138.087 45.853 138.068 45.7436 138.071 45.6335C138.066 45.5045 138.089 45.3759 138.137 45.2562C138.185 45.1365 138.258 45.0284 138.351 44.939C138.443 44.8518 138.55 44.7834 138.667 44.7377C138.785 44.692 138.91 44.67 139.036 44.6727C139.148 44.6677 139.26 44.6851 139.365 44.724C139.471 44.763 139.567 44.8226 139.649 44.8993C139.728 44.9775 139.789 45.0712 139.829 45.1744C139.869 45.2776 139.888 45.3881 139.883 45.4987C139.887 45.6272 139.864 45.7551 139.816 45.8742C139.767 45.9932 139.694 46.1008 139.602 46.1899C139.512 46.2774 139.407 46.3463 139.291 46.3926C139.175 46.4389 139.05 46.4617 138.925 46.4595C138.813 46.4634 138.7 46.4447 138.595 46.4045C138.49 46.3643 138.393 46.3035 138.312 46.2255Z" fill="#C2211A"/>
<path d="M147.889 46.5113C148.042 46.4454 148.181 46.3527 148.301 46.2376L148.878 47.1667C148.681 47.3562 148.445 47.4999 148.186 47.5876C147.9 47.6853 147.599 47.7335 147.296 47.7304C146.833 47.7496 146.374 47.6375 145.973 47.407C145.571 47.1766 145.243 46.8372 145.025 46.428C144.456 46.3266 143.939 46.0321 143.562 45.5941C143.205 45.1614 143.017 44.6143 143.032 44.0538C143.023 43.4531 143.175 42.8608 143.471 42.3384C143.76 41.8339 144.184 41.4212 144.697 41.1475C145.248 40.8551 145.865 40.7075 146.489 40.7187C146.993 40.7067 147.493 40.8126 147.948 41.028C148.344 41.2183 148.677 41.5189 148.906 41.8936C149.134 42.2779 149.25 42.7178 149.242 43.1643C149.247 43.6578 149.146 44.1467 148.946 44.5976C148.755 45.0252 148.469 45.404 148.111 45.7057C147.742 46.0126 147.31 46.2348 146.845 46.3566C146.915 46.4399 147.003 46.5064 147.102 46.5509C147.207 46.5929 147.318 46.6131 147.43 46.6104C147.588 46.6094 147.745 46.5756 147.889 46.5113ZM145.437 42.2828C145.174 42.4573 144.963 42.7004 144.828 42.9859C144.683 43.2894 144.61 43.6222 144.614 43.9586C144.606 44.1244 144.633 44.2901 144.692 44.4452C144.751 44.6003 144.842 44.7415 144.958 44.8599C145.088 44.9772 145.24 45.0675 145.405 45.1253C145.57 45.1832 145.745 45.2076 145.919 45.197C146.245 45.2036 146.564 45.1124 146.837 44.9352C147.1 44.7608 147.311 44.5177 147.446 44.2322C147.591 43.9286 147.664 43.5958 147.66 43.2595C147.668 43.0936 147.641 42.928 147.582 42.7729C147.523 42.6178 147.432 42.4766 147.316 42.3582C147.186 42.2408 147.034 42.1506 146.869 42.0927C146.704 42.0348 146.529 42.0105 146.355 42.0211C146.029 42.0145 145.71 42.1056 145.437 42.2828Z" fill="#C2211A"/>
<path d="M154.78 42.0845L153.925 46.3883H152.501L152.588 45.9436C152.41 46.1143 152.199 46.2468 151.967 46.3328C151.741 46.4167 151.501 46.4597 151.259 46.4597C150.851 46.4813 150.45 46.3447 150.14 46.0784C149.997 45.9375 149.886 45.7674 149.814 45.5798C149.742 45.3921 149.712 45.1912 149.725 44.9907C149.725 44.8119 149.743 44.6337 149.78 44.4587L150.254 42.0845H151.757L151.314 44.316C151.294 44.4124 151.283 44.5108 151.283 44.6094C151.273 44.687 151.281 44.766 151.306 44.84C151.332 44.914 151.374 44.9809 151.431 45.0356C151.487 45.0903 151.555 45.1312 151.629 45.1551C151.704 45.179 151.783 45.1851 151.86 45.1731C151.978 45.1771 152.095 45.1578 152.205 45.1163C152.315 45.0748 152.416 45.0119 152.501 44.9312C152.688 44.733 152.81 44.482 152.85 44.2123L153.276 42.0845H154.78Z" fill="#C2211A"/>
<path d="M160.278 42.0844L159.424 46.3882H158L158.087 45.9832C157.751 46.2982 157.305 46.4693 156.845 46.4596C156.533 46.4606 156.226 46.38 155.954 46.2257C155.673 46.0651 155.442 45.83 155.286 45.5464C155.111 45.2254 155.024 44.8639 155.033 44.4984C155.027 44.0563 155.135 43.6202 155.346 43.2316C155.544 42.8641 155.836 42.5558 156.192 42.3383C156.543 42.1229 156.947 42.0102 157.359 42.0131C157.61 41.9874 157.863 42.0282 158.094 42.1313C158.324 42.2344 158.524 42.3962 158.672 42.6006L158.775 42.0845L160.278 42.0844ZM158.103 44.9113C158.3 44.6671 158.401 44.3593 158.388 44.0457C158.393 43.9357 158.377 43.8256 158.34 43.722C158.302 43.6184 158.245 43.5233 158.17 43.4424C158.091 43.3662 157.997 43.3071 157.894 43.2688C157.792 43.2305 157.682 43.2138 157.573 43.2197C157.433 43.2159 157.294 43.2439 157.166 43.3017C157.039 43.3595 156.926 43.4456 156.837 43.5534C156.639 43.8002 156.537 44.1109 156.552 44.427C156.542 44.5365 156.557 44.6469 156.594 44.7503C156.632 44.8538 156.691 44.9478 156.769 45.0257C156.847 45.1037 156.94 45.1637 157.043 45.2016C157.147 45.2395 157.257 45.2543 157.367 45.245C157.507 45.2488 157.646 45.2207 157.773 45.1629C157.901 45.1051 158.013 45.0191 158.103 44.9113Z" fill="#C2211A"/>
<path d="M161.559 40.4966H163.062L161.891 46.3883H160.388L161.559 40.4966Z" fill="#C2211A"/>
<path d="M163.719 42.0844H165.214L164.359 46.3882H162.864L163.719 42.0844ZM164.051 41.3933C163.975 41.3275 163.914 41.2457 163.873 41.1538C163.832 41.0618 163.812 40.962 163.814 40.8613C163.81 40.7457 163.833 40.6307 163.878 40.5245C163.924 40.4182 163.993 40.3233 164.079 40.2461C164.272 40.0784 164.523 39.9916 164.779 40.0036C165.007 39.9921 165.232 40.0642 165.412 40.2064C165.488 40.2695 165.549 40.349 165.59 40.4391C165.631 40.5292 165.651 40.6275 165.649 40.7265C165.653 40.8455 165.631 40.9639 165.584 41.0736C165.538 41.1832 165.468 41.2815 165.38 41.3615C165.186 41.5313 164.934 41.6196 164.676 41.608C164.448 41.6188 164.224 41.542 164.051 41.3933Z" fill="#C2211A"/>
<path d="M167.325 44.7843C167.315 44.8585 167.309 44.9061 167.309 44.9271C167.309 45.1707 167.441 45.2925 167.705 45.2925C167.863 45.2882 168.018 45.2443 168.156 45.165L168.346 46.2057C168.002 46.3864 167.618 46.4739 167.23 46.4595C166.849 46.4799 166.474 46.3614 166.174 46.1258C166.043 46.0107 165.939 45.8673 165.871 45.7064C165.803 45.5454 165.773 45.3712 165.782 45.1968C165.781 45.0609 165.794 44.9252 165.822 44.7923L166.107 43.3703H165.474L165.703 42.243H166.328L166.55 41.1235H168.053L167.832 42.243H168.805L168.583 43.3703H167.61L167.325 44.7843Z" fill="#C2211A"/>
<path d="M174.162 42.0845L171.416 46.5786C171.233 46.8878 171.014 47.1743 170.763 47.4323C170.576 47.6225 170.351 47.7712 170.103 47.8691C169.842 47.9613 169.565 48.0056 169.288 48C169.059 47.9998 168.831 47.965 168.612 47.8969C168.418 47.8437 168.236 47.752 168.078 47.6272L168.75 46.5628C168.933 46.7246 169.17 46.8124 169.415 46.8092C169.537 46.8131 169.658 46.7814 169.763 46.718C169.876 46.638 169.973 46.5368 170.048 46.42L169.075 42.0845H170.57L171.108 44.7284L172.69 42.0845L174.162 42.0845Z" fill="#C2211A"/>
<path d="M173.58 46.2255C173.5 46.1491 173.438 46.0569 173.397 45.955C173.355 45.853 173.335 45.7436 173.339 45.6335C173.334 45.5045 173.356 45.3759 173.404 45.2562C173.453 45.1365 173.526 45.0284 173.619 44.939C173.71 44.8518 173.817 44.7834 173.935 44.7377C174.052 44.692 174.178 44.67 174.304 44.6727C174.416 44.6677 174.528 44.6851 174.633 44.724C174.738 44.763 174.835 44.8226 174.917 44.8993C174.995 44.9775 175.056 45.0712 175.097 45.1744C175.137 45.2776 175.155 45.3881 175.15 45.4987C175.154 45.6272 175.132 45.7551 175.083 45.8742C175.035 45.9932 174.962 46.1008 174.869 46.1899C174.78 46.2774 174.674 46.3463 174.558 46.3926C174.442 46.4389 174.318 46.4617 174.193 46.4595C174.08 46.4634 173.968 46.4447 173.863 46.4045C173.757 46.3643 173.661 46.3035 173.58 46.2255Z" fill="#C2211A"/>
<path d="M180.094 42.0765H178.393L178.646 40.8296H183.606L183.353 42.0765H181.66L180.797 46.3882H179.231L180.094 42.0765Z" fill="#C2211A"/>
<path d="M186.66 42.0131L186.399 43.3704C186.286 43.3559 186.172 43.3479 186.059 43.3466C185.769 43.332 185.482 43.4176 185.248 43.5891C185.024 43.7874 184.88 44.0595 184.84 44.3556L184.429 46.3882H182.926L183.78 42.0844H185.204L185.109 42.5609C185.317 42.3688 185.561 42.2211 185.828 42.1269C186.095 42.0327 186.378 41.9939 186.66 42.0131Z" fill="#C2211A"/>
<path d="M191.794 42.0845L190.94 46.3883H189.516L189.603 45.9436C189.425 46.1143 189.213 46.2468 188.982 46.3328C188.755 46.4167 188.515 46.4597 188.274 46.4597C187.866 46.4813 187.465 46.3447 187.155 46.0784C187.011 45.9375 186.9 45.7674 186.829 45.5798C186.757 45.3921 186.726 45.1912 186.739 44.9907C186.739 44.8119 186.758 44.6337 186.795 44.4587L187.269 42.0845H188.772L188.329 44.316C188.308 44.4124 188.298 44.5108 188.297 44.6094C188.287 44.687 188.295 44.766 188.321 44.84C188.347 44.914 188.389 44.9809 188.445 45.0356C188.501 45.0903 188.569 45.1312 188.644 45.1551C188.718 45.179 188.797 45.1851 188.875 45.1731C188.992 45.1771 189.11 45.1578 189.22 45.1163C189.33 45.0748 189.43 45.0119 189.516 44.9312C189.703 44.733 189.825 44.482 189.864 44.2123L190.291 42.0845H191.794Z" fill="#C2211A"/>
<path d="M192.517 46.3408C192.238 46.2848 191.969 46.1828 191.723 46.0388L192.268 44.9828C192.485 45.1133 192.719 45.211 192.964 45.2728C193.222 45.3427 193.488 45.3787 193.756 45.3799C194.214 45.3799 194.444 45.2766 194.444 45.07C194.444 44.9856 194.39 44.9235 194.282 44.8837C194.113 44.8298 193.939 44.7913 193.763 44.7687C193.5 44.7232 193.24 44.6607 192.984 44.5817C192.781 44.5153 192.597 44.3993 192.45 44.2441C192.37 44.1534 192.309 44.0479 192.269 43.9335C192.23 43.8191 192.214 43.698 192.221 43.5773C192.214 43.3453 192.27 43.1158 192.382 42.9126C192.494 42.7094 192.658 42.5398 192.858 42.4216C193.357 42.1296 193.93 41.9878 194.507 42.0131C194.805 42.0121 195.102 42.0427 195.393 42.1043C195.651 42.1558 195.901 42.2397 196.137 42.3542L195.607 43.4107C195.22 43.1864 194.779 43.0736 194.333 43.085C194.155 43.0745 193.978 43.1058 193.815 43.1762C193.767 43.1949 193.726 43.227 193.696 43.2686C193.665 43.3101 193.648 43.3595 193.645 43.4107C193.645 43.4951 193.699 43.5575 193.807 43.5971C193.982 43.6535 194.16 43.6972 194.341 43.728C194.6 43.7696 194.855 43.8307 195.104 43.911C195.307 43.979 195.489 44.0962 195.634 44.252C195.792 44.4311 195.873 44.6651 195.86 44.9035C195.867 45.1353 195.811 45.3647 195.698 45.5674C195.585 45.77 195.42 45.9384 195.219 46.0546C194.723 46.3427 194.155 46.4832 193.582 46.4597C193.224 46.4609 192.866 46.421 192.517 46.3408Z" fill="#C2211A"/>
<path d="M198.226 44.7843C198.216 44.8585 198.21 44.9061 198.21 44.9271C198.21 45.1707 198.342 45.2925 198.606 45.2925C198.765 45.2882 198.92 45.2443 199.057 45.165L199.247 46.2057C198.904 46.3864 198.519 46.4739 198.131 46.4595C197.751 46.4799 197.375 46.3614 197.075 46.1258C196.944 46.0107 196.841 45.8673 196.773 45.7064C196.705 45.5454 196.674 45.3712 196.684 45.1968C196.682 45.0609 196.695 44.9252 196.723 44.7923L197.008 43.3703H196.375L196.605 42.243H197.229L197.451 41.1235H198.954L198.733 42.243H199.706L199.484 43.3703H198.511L198.226 44.7843Z" fill="#C2211A"/>
<path d="M199.978 46.2255C199.899 46.1491 199.836 46.0569 199.795 45.955C199.753 45.8531 199.734 45.7436 199.737 45.6335C199.732 45.5045 199.755 45.3759 199.803 45.2562C199.851 45.1365 199.924 45.0284 200.018 44.939C200.109 44.8518 200.216 44.7834 200.333 44.7377C200.451 44.692 200.576 44.67 200.702 44.6727C200.814 44.6677 200.926 44.6851 201.031 44.724C201.137 44.763 201.233 44.8226 201.315 44.8993C201.394 44.9775 201.455 45.0712 201.495 45.1744C201.535 45.2776 201.554 45.3881 201.549 45.4987C201.553 45.6272 201.53 45.7551 201.482 45.8742C201.433 45.9932 201.36 46.1008 201.268 46.1899C201.178 46.2774 201.073 46.3463 200.957 46.3926C200.841 46.4389 200.716 46.4617 200.591 46.4595C200.479 46.4634 200.366 46.4447 200.261 46.4045C200.156 46.3643 200.059 46.3035 199.978 46.2255Z" fill="#C2211A"/>
<path d="M43.4338 1.74765e-05L37.3052 32.5722H27.7569L30.5103 17.7287L21.7613 29.6406H17.1426L12.3461 17.9148L9.54828 32.5722H0L6.2175 0H14.7444L21.4948 17.3098L34.5072 0L43.4338 1.74765e-05Z" fill="white"/>
<path d="M76.4717 32.4356C74.6654 32.0353 72.9323 31.3566 71.3345 30.4238L74.8762 23.6265C77.6561 25.2778 80.8274 26.1545 84.0607 26.1657C84.9759 26.2097 85.8902 26.0634 86.7459 25.736C87.3685 25.4497 87.6798 25.0591 87.6798 24.5641C87.6798 24.0952 87.362 23.7176 86.7262 23.4311C85.7485 23.036 84.7398 22.7225 83.7104 22.4937C82.1767 22.1153 80.6688 21.639 79.196 21.0678C77.9927 20.5794 76.92 19.8169 76.063 18.8411C75.1314 17.7361 74.6518 16.3198 74.7204 14.8761C74.6822 12.9426 75.2616 11.0474 76.3743 9.46575C77.5844 7.83383 79.2399 6.5859 81.1419 5.8718C83.4885 4.97702 85.9865 4.54589 88.4973 4.60231C90.4016 4.58948 92.3012 4.79256 94.1597 5.20766C95.7515 5.55001 97.2808 6.13639 98.6934 6.94603L95.3855 13.665C94.2976 12.9778 93.1094 12.4639 91.8635 12.1417C90.5742 11.8026 89.2465 11.6319 87.9134 11.6338C86.8983 11.5829 85.8853 11.7702 84.9555 12.1807C84.2552 12.5457 83.905 12.9754 83.9049 13.4698C83.9049 13.9649 84.2228 14.3555 84.8585 14.6417C85.8732 15.0455 86.9214 15.3592 87.9911 15.5792C89.5048 15.9205 90.9936 16.3643 92.4471 16.9075C93.6516 17.375 94.7262 18.1253 95.5801 19.095C96.4972 20.1841 96.9698 21.5791 96.9033 23.0014C96.9388 24.9194 96.3516 26.7972 95.2297 28.3533C94.0043 29.9734 92.3446 31.2128 90.4431 31.9277C88.1093 32.8202 85.6245 33.2513 83.1264 33.1972C80.8857 33.2111 78.6514 32.9554 76.4717 32.4356Z" fill="white"/>
<path d="M118.332 27.8064H107.941L105.216 32.5723H95.5264L112.883 5.22729H121.912L128.372 32.5723H119.227L118.332 27.8064ZM117.048 21.1655L115.724 14.173L111.716 21.1655H117.048Z" fill="white"/>
<path d="M135.761 32.4356C133.955 32.0353 132.222 31.3566 130.624 30.4238L134.166 23.6265C136.946 25.2778 140.117 26.1545 143.35 26.1657C144.265 26.2097 145.18 26.0634 146.035 25.736C146.658 25.4497 146.969 25.0591 146.969 24.5641C146.969 24.0952 146.651 23.7176 146.016 23.4311C145.038 23.036 144.029 22.7225 143 22.4937C141.466 22.1153 139.958 21.639 138.486 21.0678C137.282 20.5793 136.209 19.8169 135.353 18.8411C134.421 17.7361 133.941 16.3198 134.01 14.8761C133.972 12.9426 134.551 11.0474 135.664 9.46575C136.874 7.83383 138.529 6.5859 140.431 5.8718C142.778 4.97702 145.276 4.5459 147.787 4.60231C149.691 4.58948 151.591 4.79255 153.449 5.20766C155.041 5.55001 156.57 6.13639 157.983 6.94603L154.675 13.665C153.587 12.9778 152.399 12.4639 151.153 12.1417C149.864 11.8026 148.536 11.6319 147.203 11.6338C146.188 11.5829 145.175 11.7702 144.245 12.1807C143.545 12.5457 143.194 12.9754 143.194 13.4698C143.194 13.9649 143.512 14.3555 144.148 14.6417C145.163 15.0455 146.211 15.3592 147.281 15.5792C148.794 15.9205 150.283 16.3643 151.737 16.9075C152.941 17.375 154.016 18.1253 154.87 19.095C155.787 20.1841 156.259 21.5791 156.193 23.0014C156.228 24.9194 155.641 26.7972 154.519 28.3533C153.294 29.9734 151.634 31.2128 149.733 31.9277C147.399 32.8202 144.914 33.2513 142.416 33.1972C140.175 33.2111 137.941 32.9554 135.761 32.4356Z" fill="white"/>
<path d="M189.885 5.22709L184.437 32.5721H175.253L177.276 22.4935H168.792L166.768 32.5721H157.584L162.178 9.51642C162.416 8.30888 163.066 7.22141 164.017 6.43928C164.967 5.65715 166.16 5.22875 167.39 5.22705H172.217L170.271 14.9149H178.755L179.876 9.33408C180.106 8.17737 180.73 7.13616 181.642 6.38743C182.553 5.63871 183.695 5.22868 184.875 5.22706L189.885 5.22709Z" fill="white"/>
<path d="M197.28 5.22729H202.277L196.828 32.5723H187.644L192.271 9.34912C192.5 8.18875 193.125 7.14376 194.038 6.39218C194.951 5.64061 196.097 5.22893 197.28 5.22729Z" fill="white"/>
<path d="M68.7343 5.22657C67.4844 5.22837 66.275 5.67004 65.3182 6.47419C64.3614 7.27833 63.7181 8.39362 63.5012 9.62453L63.4806 9.74027H63.4771L61.418 20.1101C61.201 21.6778 60.5993 23.1675 59.6667 24.4462C59.2698 24.8814 58.781 25.2228 58.2358 25.4458C57.6905 25.6687 57.1026 25.7676 56.5144 25.7353C55.5235 25.8058 54.5448 25.483 53.7902 24.8368C53.4555 24.4693 53.1998 24.037 53.0391 23.5666C52.8785 23.0962 52.8162 22.5978 52.8562 22.1023C52.8646 21.4319 52.9429 20.7642 53.0897 20.1101L56.0474 5.22657H51.2166C49.9465 5.22847 48.7191 5.68448 47.7558 6.51225C46.7926 7.34001 46.1572 8.48495 45.9643 9.74026L43.8663 20.2663C43.6731 21.2182 43.5688 22.1859 43.5549 23.157C43.511 25.0275 44.0047 26.8714 44.9772 28.4698C45.9612 30.0162 47.3839 31.2341 49.0635 31.9678C51.0568 32.8312 53.2142 33.2505 55.3858 33.1965C59.5358 33.1965 62.8567 32.1418 65.3486 30.0324C67.8394 27.9229 69.4999 24.7978 70.3301 20.6569L73.4046 5.22656L68.7343 5.22657Z" fill="white"/>
</g>
<defs>
<clipPath id="clip0_3504_439">
<rect width="202.277" height="48" fill="white"/>
</clipPath>
</defs>
</svg>
