<svg width="32" height="32" viewBox="0 0 32 32" fill="none" xmlns="http://www.w3.org/2000/svg">
<g clip-path="url(#clip0_3504_478)">
<path d="M32 16C32 7.16344 24.8366 0 16 0C7.16344 0 0 7.16344 0 16C0 24.8366 7.16344 32 16 32C24.8366 32 32 24.8366 32 16Z" fill="#3B5999"/>
<path d="M17.9867 10.5145V12.9065H21.7601L21.2536 16.6429H17.9333V26.2622H13.9333V16.6429H10.6133V12.9065H13.9333V10.1394C13.8673 9.48328 13.9502 8.8213 14.1758 8.19939C14.4013 7.57748 14.7643 7.01071 15.2393 6.53904C15.7142 6.06738 16.2897 5.7021 16.9255 5.46865C17.5613 5.2352 18.2422 5.1394 18.9202 5.18771C19.9091 5.18747 20.8972 5.2391 21.8802 5.3427V8.67856H19.8535C18.2935 8.70442 17.9867 9.42835 17.9867 10.5145Z" fill="white"/>
</g>
<defs>
<clipPath id="clip0_3504_478">
<rect width="32" height="32" fill="white"/>
</clipPath>
</defs>
</svg>
