<svg width="20" height="20" viewBox="0 0 20 20" fill="none" xmlns="http://www.w3.org/2000/svg">
<path d="M14.0938 18.0625H5.90625C5.53125 18.0625 5.21875 18.375 5.21875 18.75C5.21875 19.125 5.53125 19.4375 5.90625 19.4375H14.0938C14.4688 19.4375 14.7813 19.125 14.7813 18.75C14.7813 18.375 14.4688 18.0625 14.0938 18.0625Z" fill="#111928"/>
<path d="M9.5 15.9375C9.625 16.0625 9.8125 16.125 10 16.125C10.1875 16.125 10.3437 16.0625 10.5 15.9375L13.8437 12.6563C14.125 12.375 14.125 11.9375 13.8437 11.6562C13.5625 11.375 13.125 11.375 12.8437 11.6562L10.7187 13.75V1.25C10.7187 0.875 10.4062 0.5625 10.0312 0.5625C9.65625 0.5625 9.34375 0.875 9.34375 1.25V13.7812L7.21875 11.6875C6.9375 11.4063 6.5 11.4063 6.21875 11.6875C5.9375 11.9688 5.9375 12.4062 6.21875 12.6875L9.5 15.9375Z" fill="#111928"/>
</svg>

